<svg width="30" height="30" viewBox="0 0 30 30" fill="none" xmlns="http://www.w3.org/2000/svg">
<circle cx="15" cy="15" r="15" fill="#011638"/>
<path d="M8.29423 12.9014L3.05951 20.6223C2.90676 20.8699 3.06447 21.1918 3.35361 21.2235L13.6822 22.3166L8.29423 12.9014V12.9014ZM3.3675 17.8725L7.10148 11.8128L3.30054 9.53551C3.16813 9.45626 3 9.55136 3 9.70539V17.769C3 17.9686 3.26236 18.0429 3.3675 17.8725ZM3.9051 23.2299L13.5463 27.5715C13.8092 27.6928 14.1092 27.5006 14.1092 27.2119V23.9594L4.01421 22.855C3.79352 22.8302 3.70524 23.1318 3.9051 23.2299V23.2299ZM7.93319 10.4627L11.8973 3.38319C12.1125 3.03353 11.7192 2.6279 11.3627 2.83145L3.88328 7.71537C3.76078 7.7956 3.76475 7.97588 3.88973 8.05117L7.93319 10.4627V10.4627ZM14.9027 10.9669H20.319L15.5787 2.6274C15.4235 2.3758 15.1631 2.25 14.9027 2.25C14.6424 2.25 14.382 2.3758 14.2268 2.6274L9.48649 10.9669H14.9027ZM26.5049 9.53551L22.704 11.8133L26.438 17.873C26.5426 18.0434 26.8055 17.9691 26.8055 17.769V9.70539C26.8055 9.55136 26.6373 9.45626 26.5049 9.53551V9.53551ZM21.8723 10.4627L25.9157 8.05067C26.0412 7.97539 26.0447 7.79511 25.9222 7.71487L18.4428 2.83145C18.0862 2.6279 17.6929 3.03353 17.9082 3.38319L21.8723 10.4627ZM25.7912 22.855L15.6962 23.9589V27.2114C15.6962 27.5006 15.9963 27.6923 16.2591 27.571L25.9004 23.2294C26.1002 23.1318 26.0119 22.8302 25.7912 22.855V22.855ZM21.5112 12.9014L16.1238 22.3166L26.4523 21.2235C26.7415 21.1913 26.8992 20.8699 26.7464 20.6223L21.5112 12.9014V12.9014ZM14.9027 12.5517H9.92193L14.9027 21.2562L19.8835 12.5517H14.9027Z" fill="#CDCDCD"/>
</svg>
