<svg width="30" height="30" viewBox="0 0 30 30" fill="none" xmlns="http://www.w3.org/2000/svg">
<path d="M7.5 13.5H13.5V7.5L16.5 7.5L16.5 13.5H22.5V16.5H16.5V22.5H13.5V16.5L7.5 16.5L7.5 13.5ZM15 30C16.9698 30 18.9204 29.612 20.7403 28.8582C22.5601 28.1044 24.2137 26.9995 25.6066 25.6066C28.4196 22.7936 30 18.9782 30 15C30 11.0218 28.4196 7.20644 25.6066 4.3934C24.2137 3.00052 22.5601 1.89563 20.7403 1.14181C18.9204 0.387985 16.9698 0 15 0C11.0218 0 7.20644 1.58035 4.3934 4.3934C1.58035 7.20644 0 11.0218 0 15C0 16.9698 0.387985 18.9204 1.14181 20.7403C1.89563 22.5601 3.00052 24.2137 4.3934 25.6066C5.78628 26.9995 7.43987 28.1044 9.25975 28.8582C11.0796 29.612 13.0302 30 15 30Z" fill="#D0EFB1"/>
</svg>
