<svg width="30" height="36" viewBox="0 0 30 36" fill="none" xmlns="http://www.w3.org/2000/svg">
<path d="M29.5983 6.78652C29.4646 6.63387 29.3009 6.51046 29.1173 6.42399C28.9338 6.33753 28.7343 6.28988 28.5315 6.28403C25.3807 6.20165 21.3937 2.8325 18.7577 1.51038C17.1294 0.696237 16.0558 0.159424 15.2471 0.0180134C15.0837 -0.00645629 14.9175 -0.00599338 14.7542 0.0193863C13.9456 0.160797 12.8706 0.69761 11.2451 1.51175C8.60768 2.8325 4.62071 6.20303 1.46848 6.28403C1.06347 6.29501 0.676307 6.47624 0.401723 6.78652C0.123669 7.1011 -0.019793 7.51226 0.00220211 7.93153C0.680425 21.6923 5.61471 30.2086 14.2751 35.1579C14.5003 35.2856 14.7501 35.3515 15 35.3515C15.2499 35.3515 15.4997 35.2856 15.7249 35.1579C24.3853 30.2086 29.3196 21.6923 29.9978 7.93153C30.0198 7.51226 29.8763 7.1011 29.5983 6.78652V6.78652ZM21.4637 18.0211C21.0697 19.1016 18.873 24.1361 12.5809 23.009C12.3942 23.6638 11.9439 25.0876 11.8052 25.5269C11.7791 25.612 11.7379 25.6175 11.6871 25.5379C11.1503 24.7347 8.05713 20.0682 7.99673 19.9721C7.92533 19.8705 8.03654 19.8224 8.03654 19.8224L13.9799 17.0985C14.1653 17.012 14.1158 17.2193 14.1158 17.2193L13.3703 19.9309C13.3703 19.9309 14.2531 20.4608 15.9899 20.4224C18.5517 20.3702 20.78 18.5126 21.3786 17.9703C21.4761 17.8742 21.5118 17.8948 21.4637 18.0211V18.0211ZM21.9113 12.9482C21.7479 13.0306 16.8988 15.2039 15.9102 15.6982C15.7249 15.7929 15.7743 15.613 15.7743 15.613L16.5445 12.8219C16.5445 12.8219 15.6494 12.2837 13.8866 12.3194C11.3727 12.3729 9.18018 14.1316 8.48823 14.7495C8.34133 14.8771 8.29328 14.8634 8.35506 14.6973C8.8095 13.4905 11.0693 8.57269 17.3408 9.69711C17.5234 9.06557 17.9463 7.72971 18.1083 7.21761C18.1714 7.04325 18.2936 7.18878 18.2936 7.18878L21.9731 12.7423C21.9717 12.7423 22.0335 12.8878 21.9113 12.9482V12.9482Z" fill="#B1D7D3"/>
</svg>
